<?xml version="1.0" encoding="UTF-8"?>
<svg xmlns="http://www.w3.org/2000/svg" width="70" height="68" xmlns:xlink="http://www.w3.org/1999/xlink" version="1.1" viewBox="0 0 70 68">
  <path fill="#fff" d="M23.1,14.2c-.4-.2-.8-.2-1.2,0s-.7.4-.9.8l-9.7,18.5c-.1.2-.2.4-.2.7s0,.5.2.7l9.7,18.5c0,.2.2.3.4.5.2.1.3.2.6.3.2,0,.4,0,.6,0,.2,0,.4,0,.6-.2s.4-.2.5-.4c.1-.1.3-.3.3-.5s0-.4,0-.6,0-.4-.2-.6l-9.4-17.8,9.4-17.8c.2-.4.2-.8,0-1.2-.1-.4-.4-.7-.8-.9h0Z"/>
  <path fill="#fff" d="M46.9,53.8c.4.2.8.2,1.2,0s.7-.4.9-.8l9.7-18.5c.1-.2.2-.4.2-.7s0-.5-.2-.7l-9.7-18.5c0-.2-.2-.3-.4-.5-.2-.1-.3-.2-.6-.3-.2,0-.4,0-.6,0-.2,0-.4,0-.6.2-.2,0-.4.2-.5.4-.1.1-.3.3-.3.5,0,.2,0,.4,0,.6,0,.2,0,.4.2.6l9.4,17.8-9.4,17.8c-.2.4-.2.8,0,1.2.1.4.4.7.8.9h0Z"/>
</svg>
