<?xml version="1.0" encoding="UTF-8"?>
<svg xmlns="http://www.w3.org/2000/svg" width="70" height="35" version="1.1" viewBox="0 0 70 35">
  <path fill="#fff" d="M13.5,8c.3,0,.5.1.7.3s.3.5.3.7v17c0,.3,0,.5-.3.7-.2.2-.5.3-.7.3s-.5-.1-.7-.3c-.2-.2-.3-.5-.3-.7V9.1c0-.3,0-.5.3-.7.2-.2.5-.3.7-.3h0ZM21.5,8c.3,0,.5.1.7.3s.3.5.3.7v17c0,.3,0,.5-.3.7s-.5.3-.7.3-.5-.1-.7-.3c-.2-.2-.3-.5-.3-.7V9.1c0-.3,0-.5.3-.7s.5-.3.7-.3h0Z"/>
  <path fill="#fff" d="M57.9,19l-9.6,7.8c-.8.7-1.8,0-1.8-1.5v-15.6c0-1.3,1-2.1,1.8-1.5l9.6,7.8c.5.5.8,1.5.5,2.3,0,.3-.3.5-.5.6"/>
</svg>
